General 
Format : Matroska 
Format version : Version 2 
File size : 1.95 GiB 
Duration : 2h 14mn 
Overall bit rate : 2 074 Kbps 
Movie name : LOVE_ACTUALLY.Title1.DVDRip 
Encoded date : UTC 2013-03-18 03:13:44 
Writing application : DVDFab 
Writing library : libebml v0.7.8 + libmatroska v0.8.1 

Video 
ID : 1 
Format : AVC 
Format/Info : Advanced Video Codec 
Format profile : Main@L3.0 
Format settings, CABAC : Yes 
Format settings, ReFrames : 2 frames 
Codec ID : V_MPEG4/ISO/AVC 
Duration : 2h 14mn 
Bit rate : 1 585 Kbps 
Width : 720 pixels 
Height : 306 pixels 
Display aspect ratio : 2.35:1 
Frame rate mode : Constant 
Frame rate : 23.976 fps 
Color space : YUV 
Chroma subsampling : 4:2:0 
Bit depth : 8 bits 
Scan type : Progressive 
Bits/(Pixel*Frame) : 0.300 
Stream size : 1.49 GiB (76%) 
Writing library : x264 core 
Default : Yes 
Forced : No 
Color primaries : BT.601 NTSC 
Transfer characteristics : BT.709 
Matrix coefficients : BT.601 

Audio 
ID : 2 
Format : AC-3 
Format/Info : Audio Coding 3 
Mode extension : CM (complete main) 
Format settings, Endianness : Big 
Codec ID : A_AC3 
Duration : 2h 14mn 
Bit rate mode : Constant 
Bit rate : 448 Kbps 
Channel(s) : 6 channels 
Channel positions : Front: L C R, Side: L R, LFE 
Sampling rate : 48.0 KHz 
Bit depth : 16 bits 
Compression mode : Lossy 
Stream size : 432 MiB (22%) 
Default : Yes 
Forced : No 

